<svg height="504pt" viewBox="0 -156 504 504" width="504pt" xmlns="http://www.w3.org/2000/svg"><path d="m488 0h-472c-8.800781 0-16 7.199219-16 16v160c0 8.800781 7.199219 16 16 16h72.039062v-76l3.960938-4h392.007812l4 4v76c8.800782-.007812 15.992188-7.199219 15.992188-16v-160c0-8.800781-7.199219-16-16-16zm0 0" fill="#ac92ec"/><path d="m292.007812 12h-72c-2.207031 0-4 1.792969-4 4v72c0 2.207031 1.792969 4 4 4h72c2.207032 0 4-1.792969 4-4v-72c0-2.207031-1.792968-4-4-4zm0 0" fill="#656d78"/><path d="m488.007812 192h-400v-76l4-4h391.992188l4.007812 4zm0 0" fill="#f5f7fa"/><path d="m332.007812 12c11 0 20 9 20 20 0 10.992188-9 20-20 20-10.992187 0-20-9.007812-20-20 0-11 9.007813-20 20-20zm0 0" fill="#e6e9ed"/><path d="m124.246094 28c-2.207032 0-4.039063-1.792969-4.039063-4s1.753907-4 3.953125-4h.085938c2.203125 0 4 1.792969 4 4s-1.789063 4-4 4zm0 0" fill="#967adc"/><path d="m316.246094 76c-2.207032 0-4.039063-1.792969-4.039063-4s1.753907-4 3.953125-4h.085938c2.203125 0 4 1.792969 4 4s-1.789063 4-4 4zm0 0" fill="#967adc"/><path d="m332.246094 76c-2.207032 0-4.039063-1.792969-4.039063-4s1.753907-4 3.953125-4h.085938c2.203125 0 4 1.792969 4 4s-1.789063 4-4 4zm0 0" fill="#967adc"/><path d="m348.246094 76c-2.207032 0-4.039063-1.792969-4.039063-4s1.753907-4 3.953125-4h.085938c2.203125 0 4 1.792969 4 4s-1.789063 4-4 4zm0 0" fill="#967adc"/><path d="m364.246094 76c-2.207032 0-4.039063-1.792969-4.039063-4s1.753907-4 3.953125-4h.085938c2.203125 0 4 1.792969 4 4s-1.789063 4-4 4zm0 0" fill="#967adc"/><path d="m380.246094 76c-2.207032 0-4.039063-1.792969-4.039063-4s1.753907-4 3.953125-4h.085938c2.203125 0 4 1.792969 4 4s-1.789063 4-4 4zm0 0" fill="#967adc"/><path d="m396.246094 76c-2.207032 0-4.039063-1.792969-4.039063-4s1.753907-4 3.953125-4h.085938c2.203125 0 4 1.792969 4 4s-1.789063 4-4 4zm0 0" fill="#967adc"/><path d="m412.246094 76c-2.207032 0-4.039063-1.792969-4.039063-4s1.753907-4 3.953125-4h.085938c2.203125 0 4 1.792969 4 4s-1.789063 4-4 4zm0 0" fill="#967adc"/><path d="m428.246094 76c-2.207032 0-4.039063-1.792969-4.039063-4s1.753907-4 3.953125-4h.085938c2.203125 0 4 1.792969 4 4s-1.789063 4-4 4zm0 0" fill="#967adc"/><path d="m316.246094 92c-2.207032 0-4.039063-1.792969-4.039063-4s1.753907-4 3.953125-4h.085938c2.203125 0 4 1.792969 4 4s-1.789063 4-4 4zm0 0" fill="#967adc"/><path d="m332.246094 92c-2.207032 0-4.039063-1.792969-4.039063-4s1.753907-4 3.953125-4h.085938c2.203125 0 4 1.792969 4 4s-1.789063 4-4 4zm0 0" fill="#967adc"/><path d="m348.246094 92c-2.207032 0-4.039063-1.792969-4.039063-4s1.753907-4 3.953125-4h.085938c2.203125 0 4 1.792969 4 4s-1.789063 4-4 4zm0 0" fill="#967adc"/><path d="m364.246094 92c-2.207032 0-4.039063-1.792969-4.039063-4s1.753907-4 3.953125-4h.085938c2.203125 0 4 1.792969 4 4s-1.789063 4-4 4zm0 0" fill="#967adc"/><path d="m380.246094 92c-2.207032 0-4.039063-1.792969-4.039063-4s1.753907-4 3.953125-4h.085938c2.203125 0 4 1.792969 4 4s-1.789063 4-4 4zm0 0" fill="#967adc"/><path d="m396.246094 92c-2.207032 0-4.039063-1.792969-4.039063-4s1.753907-4 3.953125-4h.085938c2.203125 0 4 1.792969 4 4s-1.789063 4-4 4zm0 0" fill="#967adc"/><path d="m412.246094 92c-2.207032 0-4.039063-1.792969-4.039063-4s1.753907-4 3.953125-4h.085938c2.203125 0 4 1.792969 4 4s-1.789063 4-4 4zm0 0" fill="#967adc"/><path d="m428.246094 92c-2.207032 0-4.039063-1.792969-4.039063-4s1.753907-4 3.953125-4h.085938c2.203125 0 4 1.792969 4 4s-1.789063 4-4 4zm0 0" fill="#967adc"/><path d="m332.246094 28.441406c-2.207032 0-4.039063-1.792968-4.039063-4 0-2.210937 1.753907-4 3.953125-4h.085938c2.203125 0 4 1.789063 4 4 0 2.207032-1.789063 4-4 4zm0 0" fill="#ccd1d9"/><path d="m108.246094 28c-2.207032 0-4.039063-1.792969-4.039063-4s1.753907-4 3.953125-4h.085938c2.203125 0 4 1.792969 4 4s-1.789063 4-4 4zm0 0" fill="#967adc"/><path d="m92.246094 28c-2.207032 0-4.039063-1.792969-4.039063-4s1.753907-4 3.953125-4h.085938c2.203125 0 4 1.792969 4 4s-1.789063 4-4 4zm0 0" fill="#967adc"/><path d="m32.007812 156.007812c0 2.210938-1.789062 4-4 4-2.207031 0-4-1.789062-4-4 0-2.207031 1.792969-4 4-4 2.210938 0 4 1.792969 4 4zm0 0" fill="#656d78"/><path d="m48.007812 156.007812c0 2.210938-1.789062 4-4 4-2.207031 0-4-1.789062-4-4 0-2.207031 1.792969-4 4-4 2.210938 0 4 1.792969 4 4zm0 0" fill="#656d78"/><path d="m64.015625 156.007812c0 2.210938-1.789063 4-4 4-2.207031 0-4-1.789062-4-4 0-2.207031 1.792969-4 4-4 2.210937 0 4 1.792969 4 4zm0 0" fill="#656d78"/><path d="m68.007812 20h-48c-2.207031 0-4 1.792969-4 4v48c0 2.207031 1.792969 4 4 4h48c2.207032 0 4-1.792969 4-4v-48c0-2.207031-1.792968-4-4-4zm-32 28c0-4.398438 3.601563-8 8-8 4.398438 0 8 3.601562 8 8s-3.601562 8-8 8c-4.398437 0-8-3.601562-8-8zm0 0" fill="#e6e9ed"/><g fill="#967adc"><path d="m68.007812 103.984375h-47.511718c-2.207032 0-4-1.792969-4-4s1.792968-4 4-4h47.511718c2.207032 0 4 1.792969 4 4s-1.792968 4-4 4zm0 0"/><path d="m68.007812 120h-47.511718c-2.207032 0-4-1.792969-4-4 0-2.214844 1.792968-4.007812 4-4.007812h47.511718c2.207032 0 4 1.792968 4 4.007812 0 2.207031-1.792968 4-4 4zm0 0"/><path d="m68.007812 136.015625h-47.511718c-2.207032 0-4-1.792969-4-4 0-2.214844 1.792968-4.007813 4-4.007813h47.511718c2.207032 0 4 1.792969 4 4.007813 0 2.207031-1.792968 4-4 4zm0 0"/><path d="m428.007812 44h-8c-2.207031 0-4-1.792969-4-4s1.792969-4 4-4h8c2.207032 0 4 1.792969 4 4s-1.792968 4-4 4zm0 0"/><path d="m404.007812 44h-8c-2.207031 0-4-1.792969-4-4s1.792969-4 4-4h8c2.207032 0 4 1.792969 4 4s-1.792968 4-4 4zm0 0"/><path d="m380.007812 44h-8c-2.207031 0-4-1.792969-4-4s1.792969-4 4-4h8c2.207032 0 4 1.792969 4 4s-1.792968 4-4 4zm0 0"/><path d="m428.007812 28h-8c-2.207031 0-4-1.792969-4-4s1.792969-4 4-4h8c2.207032 0 4 1.792969 4 4s-1.792968 4-4 4zm0 0"/><path d="m404.007812 28h-8c-2.207031 0-4-1.792969-4-4s1.792969-4 4-4h8c2.207032 0 4 1.792969 4 4s-1.792968 4-4 4zm0 0"/><path d="m380.007812 28h-8c-2.207031 0-4-1.792969-4-4s1.792969-4 4-4h8c2.207032 0 4 1.792969 4 4s-1.792968 4-4 4zm0 0"/><path d="m100.007812 60h-8c-2.207031 0-4-1.792969-4-4s1.792969-4 4-4h8c2.207032 0 4 1.792969 4 4s-1.792968 4-4 4zm0 0"/><path d="m100.007812 76h-8c-2.207031 0-4-1.792969-4-4s1.792969-4 4-4h8c2.207032 0 4 1.792969 4 4s-1.792968 4-4 4zm0 0"/><path d="m100.007812 92h-8c-2.207031 0-4-1.792969-4-4s1.792969-4 4-4h8c2.207032 0 4 1.792969 4 4s-1.792968 4-4 4zm0 0"/><path d="m124.007812 60h-8c-2.207031 0-4-1.792969-4-4s1.792969-4 4-4h8c2.207032 0 4 1.792969 4 4s-1.792968 4-4 4zm0 0"/><path d="m124.007812 76h-8c-2.207031 0-4-1.792969-4-4s1.792969-4 4-4h8c2.207032 0 4 1.792969 4 4s-1.792968 4-4 4zm0 0"/><path d="m124.007812 92h-8c-2.207031 0-4-1.792969-4-4s1.792969-4 4-4h8c2.207032 0 4 1.792969 4 4s-1.792968 4-4 4zm0 0"/><path d="m148.007812 60h-8c-2.207031 0-4-1.792969-4-4s1.792969-4 4-4h8c2.207032 0 4 1.792969 4 4s-1.792968 4-4 4zm0 0"/><path d="m148.007812 76h-8c-2.207031 0-4-1.792969-4-4s1.792969-4 4-4h8c2.207032 0 4 1.792969 4 4s-1.792968 4-4 4zm0 0"/><path d="m148.007812 92h-8c-2.207031 0-4-1.792969-4-4s1.792969-4 4-4h8c2.207032 0 4 1.792969 4 4s-1.792968 4-4 4zm0 0"/><path d="m172.007812 60h-8c-2.207031 0-4-1.792969-4-4s1.792969-4 4-4h8c2.207032 0 4 1.792969 4 4s-1.792968 4-4 4zm0 0"/><path d="m172.007812 76h-8c-2.207031 0-4-1.792969-4-4s1.792969-4 4-4h8c2.207032 0 4 1.792969 4 4s-1.792968 4-4 4zm0 0"/><path d="m172.007812 92h-8c-2.207031 0-4-1.792969-4-4s1.792969-4 4-4h8c2.207032 0 4 1.792969 4 4s-1.792968 4-4 4zm0 0"/><path d="m196.007812 60h-8c-2.207031 0-4-1.792969-4-4s1.792969-4 4-4h8c2.207032 0 4 1.792969 4 4s-1.792968 4-4 4zm0 0"/><path d="m196.007812 76h-8c-2.207031 0-4-1.792969-4-4s1.792969-4 4-4h8c2.207032 0 4 1.792969 4 4s-1.792968 4-4 4zm0 0"/><path d="m196.007812 92h-8c-2.207031 0-4-1.792969-4-4s1.792969-4 4-4h8c2.207032 0 4 1.792969 4 4s-1.792968 4-4 4zm0 0"/><path d="m196.007812 28h-56c-2.207031 0-4-1.792969-4-4s1.792969-4 4-4h56c2.207032 0 4 1.792969 4 4s-1.792968 4-4 4zm0 0"/></g><path d="m156.007812 36c-2.207031 0-4-1.792969-4-4v-15.128906c0-2.207032 1.792969-4 4-4 2.207032 0 4 1.792968 4 4v15.128906c0 2.207031-1.792968 4-4 4zm0 0" fill="#656d78"/><path d="m484.015625 92c-2.207031 0-4-1.792969-4-4v-64c0-2.207031 1.792969-4 4-4s4 1.792969 4 4v64c0 2.207031-1.792969 4-4 4zm0 0" fill="#967adc"/><path d="m492.015625 44h-16c-2.207031 0-4-1.792969-4-4s1.792969-4 4-4h16c2.207031 0 4 1.792969 4 4s-1.792969 4-4 4zm0 0" fill="#656d78"/><path d="m460.015625 92c-2.207031 0-4-1.792969-4-4v-64c0-2.207031 1.792969-4 4-4s4 1.792969 4 4v64c0 2.207031-1.792969 4-4 4zm0 0" fill="#967adc"/><path d="m468.015625 76h-16c-2.207031 0-4-1.792969-4-4s1.792969-4 4-4h16c2.207031 0 4 1.792969 4 4s-1.792969 4-4 4zm0 0" fill="#656d78"/><path d="m104.023438 112h8v80h-8zm0 0" fill="#e6e9ed"/><path d="m128.023438 112h8v80h-8zm0 0" fill="#e6e9ed"/><path d="m152.023438 112h8v80h-8zm0 0" fill="#e6e9ed"/><path d="m176.023438 112h8v80h-8zm0 0" fill="#e6e9ed"/><path d="m200.023438 112h8v80h-8zm0 0" fill="#e6e9ed"/><path d="m224.023438 112h8v80h-8zm0 0" fill="#e6e9ed"/><path d="m248.023438 112h8v80h-8zm0 0" fill="#e6e9ed"/><path d="m272.023438 112h8v80h-8zm0 0" fill="#e6e9ed"/><path d="m296.023438 112h8v80h-8zm0 0" fill="#e6e9ed"/><path d="m320.023438 112h8v80h-8zm0 0" fill="#e6e9ed"/><path d="m344.023438 112h8v80h-8zm0 0" fill="#e6e9ed"/><path d="m368.023438 112h8v80h-8zm0 0" fill="#e6e9ed"/><path d="m392.023438 112h8v80h-8zm0 0" fill="#e6e9ed"/><path d="m416.023438 112h8v80h-8zm0 0" fill="#e6e9ed"/><path d="m440.023438 112h8v80h-8zm0 0" fill="#e6e9ed"/><path d="m464.023438 112h8v80h-8zm0 0" fill="#e6e9ed"/><path d="m124.03125 112h-12.007812v4h.007812v32c0 2.199219 1.800781 4 4 4h8c2.199219 0 4-1.800781 4-4v-36zm0 0" fill="#656d78"/><path d="m172.007812 112h-12.007812v4h.007812v32c0 2.199219 1.800782 4 4 4h8c2.199219 0 4-1.800781 4-4v-36zm0 0" fill="#656d78"/><path d="m219.984375 112h-12.007813v4h.007813v32c0 2.199219 1.800781 4 4 4h8c2.199219 0 4-1.800781 4-4v-36zm0 0" fill="#656d78"/><path d="m267.960938 112h-12.007813v4h.007813v32c0 2.199219 1.800781 4 4 4h8c2.199218 0 4-1.800781 4-4v-36zm0 0" fill="#656d78"/><path d="m315.9375 112h-12.007812v4h.007812v32c0 2.199219 1.796875 4 4 4h8c2.199219 0 4-1.800781 4-4v-36zm0 0" fill="#656d78"/><path d="m363.910156 112h-12.007812v4h.007812v32c0 2.199219 1.800782 4 4 4h8c2.203125 0 4-1.800781 4-4v-36zm0 0" fill="#656d78"/><path d="m411.886719 112h-12.007813v4h.007813v32c0 2.199219 1.800781 4 4 4h8c2.203125 0 4-1.800781 4-4v-36zm0 0" fill="#656d78"/><path d="m459.863281 112h-12.007812v4h.007812v32c0 2.199219 1.800781 4 4 4h8c2.199219 0 4-1.800781 4-4v-36zm0 0" fill="#656d78"/><path d="m488.007812 116c0 2.210938-1.789062 4-4 4-2.207031 0-4-1.789062-4-4s1.792969-4 4-4c2.210938 0 4 1.789062 4 4zm0 0" fill="#e6e9ed"/><path d="m96.007812 116c0 2.210938-1.789062 4-4 4-2.207031 0-4-1.789062-4-4s1.792969-4 4-4c2.210938 0 4 1.789062 4 4zm0 0" fill="#e6e9ed"/><path d="m52.007812 48c0 4.417969-3.582031 8-8 8-4.417968 0-8-3.582031-8-8s3.582032-8 8-8c4.417969 0 8 3.582031 8 8zm0 0" fill="#656d78"/><path d="m272.007812 44h-32.007812c-2.207031 0-4-1.792969-4-4s1.792969-4 4-4h32.007812c2.207032 0 4 1.792969 4 4s-1.792968 4-4 4zm0 0" fill="#545c66"/><path d="m272.023438 68h-32.007813c-2.207031 0-4-1.792969-4-4s1.792969-4 4-4h32.007813c2.207031 0 4 1.792969 4 4s-1.792969 4-4 4zm0 0" fill="#545c66"/><path d="m252.015625 40c0 4.417969-3.582031 8-8 8s-8-3.582031-8-8 3.582031-8 8-8 8 3.582031 8 8zm0 0" fill="#e6e9ed"/><path d="m276.023438 64c0 4.417969-3.582032 8-8 8-4.417969 0-8-3.582031-8-8s3.582031-8 8-8c4.417968 0 8 3.582031 8 8zm0 0" fill="#e6e9ed"/></svg>